<svg width="180" height="36" viewBox="0 0 180 36" fill="none" xmlns="http://www.w3.org/2000/svg">
<path d="M8.14117 17.7548L4.06883 21.7651L0 17.7548L4.06883 13.7445L8.14117 17.7548ZM18.0141 8.01707L24.9867 14.8928L29.0555 10.8825L18.0141 0L6.97262 10.8825L11.0414 14.8928L18.0141 8.01707ZM31.9628 13.7445L27.894 17.7548L31.9628 21.7651L36.0281 17.7548L31.9628 13.7445ZM18.0141 27.4926L11.0414 20.6203L6.97262 24.6271L18.0141 35.5096L29.0555 24.6271L24.9867 20.6203L18.0141 27.4926ZM18.0141 21.7651L22.0829 17.7548L18.0141 13.7445L13.9452 17.7548L18.0141 21.7651ZM60.955 22.1502V22.0947C60.955 19.479 59.5471 18.1711 57.2557 17.3108C58.6636 16.5302 59.8533 15.3056 59.8533 13.1097V13.0542C59.8533 9.99446 57.3683 8.01707 53.3312 8.01707H44.1658V27.4926H53.5635C58.023 27.4926 60.962 25.7129 60.962 22.1502H60.955ZM55.5345 13.8243C55.5345 15.271 54.3202 15.885 52.402 15.885H48.4V11.7741H52.6906C54.5244 11.7741 55.5416 12.4957 55.5416 13.7758L55.5345 13.8243ZM56.6362 21.6159C56.6362 23.0625 55.4782 23.7286 53.5564 23.7286H48.4V19.4512H53.4227C55.6542 19.4512 56.6433 20.2595 56.6433 21.5674L56.6362 21.6159ZM70.0887 27.4926V8.01707H65.7277V27.4926H70.0887ZM93.4563 27.4926V8.01707H89.1516V20.0097L79.8947 8.01707H75.8857V27.4926H80.1763V15.1114L89.743 27.4926H93.4563ZM117.535 27.4926L109.052 7.87831H105.043L96.5783 27.4926H101.01L102.822 23.125H111.178L112.984 27.4926H117.535ZM109.633 19.3402H104.368L106.993 13.0264L109.633 19.3402ZM138.256 27.4926V8.01707H133.951V20.0097L124.691 8.01707H120.685V27.4926H124.972V15.1114L134.542 27.4926H138.256ZM160.694 24.3496L157.931 21.5951C156.379 22.9827 154.996 23.8743 152.736 23.8743C149.35 23.8743 147.006 21.099 147.006 17.7548V17.6993C147.006 14.362 149.406 11.6353 152.736 11.6353C154.71 11.6353 156.256 12.4679 157.79 13.8313L160.546 10.6883C158.712 8.90863 156.484 7.68404 152.757 7.68404C146.689 7.68404 142.455 12.2181 142.455 17.7444V17.7999C142.455 23.3921 146.773 27.8152 152.588 27.8152C156.393 27.8256 158.649 26.49 160.68 24.3496H160.694ZM179.243 27.4926V23.6766H168.501V19.5796H177.818V15.7636H168.501V11.8296H179.088V8.01361H164.182V27.4891L179.243 27.4926Z" fill="#B6B3EB"/>
</svg>
