<svg width="81" height="32" viewBox="0 0 81 32" fill="none" xmlns="http://www.w3.org/2000/svg">
<mask id="mask0_0_160" style="mask-type:luminance" maskUnits="userSpaceOnUse" x="0" y="0" width="81" height="32">
<path d="M0.395264 0V6.53322H4.86255V25.1096H0.516895V31.5641H16.0622V25.1096H11.5948V6.53322H15.9405V0H0.395264ZM44.6409 0.0787136V6.53322H49.1082V25.1096H44.7626V31.5641H55.8403V13.6048L62.4415 31.5578L62.5757 31.561L69.0583 13.6048V31.5641H80.2574V25.1096H75.7901V6.53322H80.1358V0.0787136H67.6508L62.4817 14.4746L57.2469 0.0787136H44.6409Z" fill="white"/>
<path d="M18.1431 0.079834V6.53434H22.6104V16.7671H39.8057V14.8049C39.8057 14.8049 41.2441 13.6996 41.7024 12.6508L42.6227 10.6156C42.6227 10.6156 43.0501 9.4765 43.0501 8.4585L42.866 6.42336C42.866 6.42336 42.5772 4.76541 42.0736 4.27227L40.2954 2.23399C40.2954 2.23399 38.0326 0.079834 35.0357 0.079834H18.1431ZM29.3423 6.53434H35.8904V12.5166H29.3423V6.53434Z" fill="white"/>
<path d="M18.1431 31.5641V25.1096H22.6104V14.8769H39.8057V16.8391C39.8057 16.8391 41.2441 17.9443 41.7024 18.9932L42.6227 21.0283C42.6227 21.0283 43.0501 22.1675 43.0501 23.1855L42.866 25.2206C42.866 25.2206 42.5772 26.8786 42.0736 27.3717L40.2954 29.41C40.2954 29.41 38.0326 31.5641 35.0357 31.5641H18.1431ZM29.3423 25.1096H35.8904V19.1274H29.3423V25.1096Z" fill="white"/>
</mask>
<g mask="url(#mask0_0_160)">
<path d="M0.395264 1.15576H82.654V5.34584H0.395264M0.395264 9.53592H78.2615V13.7268H0.395264V17.9161H78.2615V22.1054H0.395264M0.395264 26.2962H82.654V30.4871H0.395264" fill="#B6B3EB"/>
<path d="M0.395264 1.15576H82.654V5.34584H0.395264M0.395264 9.53592H78.2615V13.7268H0.395264V17.9161H78.2615V22.1054H0.395264M0.395264 26.2962H82.654V30.4871H0.395264" stroke="#B6B3EB" stroke-width="25.2648"/>
</g>
</svg>
