<svg width="132" height="32" viewBox="0 0 132 32" fill="none" xmlns="http://www.w3.org/2000/svg">
<path fill-rule="evenodd" clip-rule="evenodd" d="M42.2359 31.1111H47.2052V17.5057H49.8741C56.868 17.5057 66.1638 16.9606 66.1638 9.06994C66.1638 1.08801 57.4211 0.453014 50.4264 0.453014H36.4378V1.26923C41.4078 1.81358 42.2359 2.53991 42.2359 5.35084V31.1111ZM47.2052 5.35077C47.2052 2.62979 47.481 2.26735 52.1752 2.26735C57.3284 2.26735 60.4569 4.5347 60.4569 9.06994C60.4569 14.9659 55.1199 15.782 49.6902 15.782H47.2052V5.35077ZM71.5015 5.89519C71.5015 2.1767 70.6729 1.90499 65.7031 1.26923V0.453014H77.2984L95.4281 25.3971H95.52V0.453014H98.5577V31.1111H94.1396L74.6295 4.44482H74.5377V31.1111H71.5015V5.89519ZM131.136 30.2941C128.375 31.0205 125.706 31.5641 120.276 31.5641C109.417 31.5641 103.527 24.0366 103.527 14.7839C103.527 6.53019 107.024 0 118.896 0C127.638 0 130.768 3.62715 131.136 6.71141H125.522C125.247 5.26027 124.233 2.08545 118.528 2.08545C112.362 2.08545 109.141 6.62152 109.141 13.6053C109.141 20.0456 110.797 29.5693 123.497 29.5693C126.902 29.5693 130.492 28.5712 131.136 28.39V30.2941Z" fill="#B6B3EB"/>
<path fill-rule="evenodd" clip-rule="evenodd" d="M24.3345 17.9622H20.7347C20.8846 17.593 20.8103 17.0761 20.51 16.4842L18.4848 13.1584L15.1099 7.31792C15.1099 7.31792 13.8351 4.95262 11.9603 3.54849C13.1602 3.99211 28.3099 12.7142 28.3099 12.7142C30.7852 14.1927 32.9596 17.8883 24.3345 17.9622ZM12.9348 27.3505C10.4595 28.7546 6.03454 28.7546 10.3097 21.3635C11.0595 20.1058 12.1095 18.2587 12.1095 18.2587C12.4098 18.6279 12.8599 18.8494 13.5348 18.8494H24.3345C24.3345 18.8494 27.0351 18.9232 29.2102 18.0372C28.235 18.7756 12.9348 27.3505 12.9348 27.3505ZM7.76011 6.94811C7.76011 4.1398 10.01 0.36919 14.3601 7.68767C15.1099 9.0186 16.16 10.7925 16.16 10.7925C15.7098 10.8658 15.3347 11.1623 14.96 11.7537L13.0098 15.1538L9.55995 20.9193C9.55995 20.9193 8.13469 23.2107 7.835 25.5772C7.68453 24.2456 7.76011 6.94811 7.76011 6.94811ZM16.3847 0C7.53475 0 0.409668 7.02255 0.409668 15.7452C0.409668 24.4672 7.53475 31.5641 16.3847 31.5641C25.2353 31.5641 32.4353 24.4672 32.4353 15.7452C32.4353 7.02255 25.2353 0 16.3847 0Z" fill="#B6B3EB"/>
<path d="M29.2977 29.7896H29.5728C29.8601 29.7896 30.0426 29.6348 30.0426 29.4C30.0426 29.1358 29.8473 29.0196 29.5636 29.016C29.4334 29.016 29.3412 29.0287 29.2977 29.0408V29.7896ZM29.0293 28.8557C29.1651 28.8278 29.3597 28.8121 29.5452 28.8121C29.8325 28.8121 30.0173 28.8642 30.1476 28.9803C30.2526 29.071 30.3115 29.2113 30.3115 29.3692C30.3115 29.6408 30.1383 29.8205 29.9191 29.8937V29.9027C30.0794 29.9572 30.1752 30.1036 30.2243 30.3165C30.2924 30.6026 30.3422 30.8004 30.3858 30.8796H30.107C30.0726 30.8191 30.0272 30.6449 29.9682 30.3897C29.9062 30.106 29.7944 30.0001 29.5507 29.9904H29.2977V30.8796H29.0293V28.8557Z" fill="#B6B3EB"/>
<path d="M28.1712 29.857C28.173 30.6579 28.8307 31.3045 29.6419 31.3057C30.455 31.3045 31.1101 30.6579 31.1126 29.857C31.1101 29.0573 30.455 28.4113 29.6419 28.4095C28.8307 28.4113 28.173 29.0574 28.1712 29.857ZM27.9133 29.857C27.9133 28.917 28.6864 28.1548 29.6419 28.1548C30.5968 28.1548 31.3723 28.917 31.3723 29.857C31.3723 30.7988 30.5968 31.5622 29.6419 31.5622C28.6864 31.5622 27.9133 30.7989 27.9133 29.857Z" fill="#B6B3EB"/>
</svg>
