<svg width="161" height="33" viewBox="0 0 161 33" fill="none" xmlns="http://www.w3.org/2000/svg">
<mask id="mask0_0_172" style="mask-type:luminance" maskUnits="userSpaceOnUse" x="0" y="0" width="33" height="33">
<path d="M19.9128 26.7567C22.0158 26.7312 24.0117 26.4278 25.7783 25.843C26.2227 25.6953 26.6474 25.5317 27.0489 25.3549C26.5573 26.5377 25.8354 27.5244 24.8941 28.2578C23.0374 29.6051 20.847 30.5293 18.4692 30.8819C19.0634 29.8689 19.5434 28.4372 19.9128 26.7567ZM10.0152 29.6306C9.97151 29.5945 9.92422 29.5611 9.87069 29.5365C9.04359 29.139 8.709 27.3213 9.13995 24.5415C10.7299 25.2459 12.4608 25.8043 14.2801 26.1868C15.6586 26.477 17.0327 26.6564 18.3755 26.7259C17.717 29.547 16.8729 31.0288 16.3135 31.0288C16.2778 31.0288 16.243 31.0349 16.2091 31.0402C13.9928 31.0253 11.8925 30.5231 10.0152 29.6306ZM2.33577 20.644C2.20846 20.167 2.12809 19.679 2.09575 19.1869C2.59362 19.8851 3.19945 20.5657 3.92127 21.2235C5.01158 22.2155 6.30532 23.1037 7.74717 23.8652C7.45273 25.4886 7.36976 26.9598 7.55534 28.1453C5.07047 26.2932 3.21105 23.6718 2.33577 20.644ZM20.8505 16.7017C20.8505 16.1283 20.8416 15.5523 20.8247 14.9789C22.6778 14.8576 24.3936 14.3827 25.798 13.5869C27.0989 16.123 27.7966 18.799 27.7912 21.3247C27.7903 22.0563 27.7261 22.7519 27.6083 23.4088C26.9391 23.8125 26.1691 24.1625 25.3028 24.4509C23.7646 24.961 22.0319 25.2389 20.1947 25.2855C20.6373 22.6763 20.8505 19.6468 20.8505 16.7017ZM14.5924 24.7525C12.7473 24.363 11.0038 23.7852 9.42547 23.0544C9.94385 20.7557 10.9093 17.9707 12.4385 14.8787C12.6607 14.4311 12.8873 13.9905 13.1184 13.5596C14.1882 14.0327 15.3526 14.4082 16.5732 14.665C17.5002 14.8611 18.4281 14.9675 19.3355 14.9983C19.3525 15.5488 19.3596 16.116 19.3596 16.7017C19.3596 20.1586 19.0794 23.0281 18.6744 25.2705C17.3432 25.2134 15.9718 25.0419 14.5924 24.7525ZM4.93306 20.1463C3.66787 18.9943 2.79794 17.7737 2.3545 16.5619C2.70604 15.2041 3.38592 13.841 4.38612 12.5351C5.33457 11.2969 6.51499 10.1818 7.86851 9.22331C8.25931 9.91891 8.80625 10.5978 9.50309 11.2415C10.1651 11.8527 10.9369 12.4067 11.7926 12.8913C11.5551 13.3355 11.3248 13.7835 11.102 14.235C9.78057 16.9039 8.70186 19.7681 8.06838 22.3659C6.89152 21.7125 5.83422 20.9685 4.93306 20.1463ZM19.8387 6.50422C21.5322 7.7468 23.0847 9.34994 24.3829 11.2248C24.6291 11.5801 24.8611 11.9415 25.0815 12.3065C23.8922 12.9845 22.3861 13.3899 20.7631 13.5033C20.6257 10.9698 20.3214 8.5321 19.8387 6.50422ZM16.8854 13.2298C15.8076 13.0038 14.7833 12.6776 13.8394 12.2687C15.2295 9.8723 16.7489 7.78901 18.2488 6.2404C18.7172 8.05723 19.1098 10.5002 19.2757 13.5288C18.4861 13.4963 17.6831 13.3987 16.8854 13.2298ZM10.5211 10.1704C9.9046 9.60233 9.43706 9.00961 9.12211 8.41426C10.5176 7.58675 12.062 6.91225 13.7073 6.42419C14.6861 6.13399 15.6765 5.91942 16.6642 5.7708C15.2384 7.3458 13.8144 9.34642 12.509 11.6065C11.7631 11.1817 11.0948 10.7007 10.5211 10.1704ZM7.31801 5.49291C7.29749 5.56678 7.27607 5.64241 7.25912 5.71979C7.10833 6.41188 7.12617 7.12155 7.30284 7.82507C5.70038 8.91464 4.30671 10.203 3.19677 11.6504C2.85862 12.091 2.55615 12.5413 2.28223 12.9942C3.10755 9.98838 4.90273 7.37306 7.31801 5.49291ZM8.71525 6.02582C8.88031 5.26427 9.34516 4.58362 10.0634 4.0208C11.8024 3.50899 13.8251 3.63211 15.9513 4.39894C15.0564 4.55196 14.1614 4.75598 13.279 5.01892C11.6364 5.50434 10.0857 6.16917 8.66528 6.97645C8.63316 6.65547 8.64833 6.33713 8.71525 6.02582ZM20.7988 4.09203C21.31 3.76578 21.7811 3.54241 22.1746 3.45007C22.9214 3.74467 23.662 4.12193 24.3642 4.59856C23.2373 4.32068 22.039 4.15183 20.7988 4.09203ZM18.2898 2.52055C18.8939 2.58739 19.5389 2.6894 20.2019 2.84153C19.787 3.06138 19.3569 3.33575 18.9188 3.66553C18.7243 3.23198 18.5147 2.85033 18.2898 2.52055ZM16.6758 3.09656C16.0021 2.84241 15.3365 2.64543 14.6798 2.50472C15.2063 2.44668 15.7389 2.41327 16.2814 2.41327C16.5348 2.41591 16.8462 2.71666 17.1718 3.29794C17.0068 3.22847 16.8417 3.15987 16.6758 3.09656ZM0.288086 16.7272C0.288086 18.2274 0.506683 19.6776 0.905512 21.0538C0.929602 21.1461 0.952802 21.2385 0.980461 21.3308C0.985815 21.3475 0.993844 21.3634 1.00009 21.3818C3.02011 27.8199 9.11586 32.5097 16.3019 32.5097C19.6264 32.5097 22.7162 31.5054 25.2787 29.7906C25.3046 29.7757 25.3304 29.7633 25.3536 29.7475C25.5053 29.6455 25.6525 29.5382 25.7953 29.4257C28.7424 27.2808 30.9176 24.1651 31.8348 20.5605C31.8866 20.3951 31.9312 20.2263 31.9687 20.0557C31.9776 20.0144 31.9803 19.9757 31.9821 19.9352C32.2007 18.8984 32.3149 17.8256 32.3149 16.7281C32.3149 14.5982 31.8919 12.5307 31.0559 10.5855C30.8953 10.2117 30.459 10.0367 30.0798 10.1959C29.7006 10.3524 29.5239 10.7842 29.6837 11.1571C30.4412 12.9203 30.8248 14.7952 30.8248 16.7281C30.8248 17.9126 30.6758 19.0629 30.3983 20.1647C30.178 20.8595 29.7916 21.5023 29.2572 22.0862C29.2706 21.8374 29.2786 21.5858 29.2795 21.3282C29.2857 18.5124 28.4952 15.5382 27.0302 12.7426C28.1044 11.8334 28.7905 10.7095 29.0252 9.45283C29.1001 9.05446 28.8325 8.67193 28.4283 8.59806C28.0232 8.52331 27.6351 8.78713 27.5601 9.18637C27.4049 10.0174 26.9668 10.7798 26.2816 11.4271C26.0683 11.0797 25.847 10.7359 25.6124 10.3973C24.3053 8.50836 22.7519 6.87444 21.0522 5.5703C23.2961 5.71628 25.3697 6.25183 27.04 7.17168C27.3014 7.31854 27.6494 7.31414 27.8947 7.11276C28.2106 6.85333 28.2534 6.38901 27.9884 6.07771C25.5892 2.7703 21.4394 0.945557 16.3001 0.945557C7.47236 0.944677 0.288086 8.02469 0.288086 16.7272Z" fill="white"/>
</mask>
<g mask="url(#mask0_0_172)">
<path d="M0.288086 0.944641H32.3149V32.5096H0.288086V0.944641Z" fill="#B6B3EB"/>
</g>
<path d="M35.8395 7.98157H43.925V9.6164H40.9556V17.8159H38.8115V9.6164H35.8404L35.8395 7.98157ZM45.0599 17.8151V7.98084H47.2031V11.8625H50.9764V7.98098H53.1454V17.8151H51.004V13.4965H47.203V17.8151H45.0599ZM54.8914 7.98157H61.5815V9.6164H57.0355V11.9187H61.2923V13.5526H57.0355V16.1821H61.734V17.816H54.8923L54.8914 7.98157ZM72.2247 7.98157H74.6417L76.3834 15.3784H76.4104L78.0147 7.98157H80.0597L77.5168 17.8159H75.1408L73.3449 10.3234H73.3178L71.3807 17.8159H68.9502L66.518 7.98157H68.7299L70.2628 15.3784H70.2933L72.2247 7.98157ZM80.788 12.8991C80.788 9.99796 82.2799 7.7757 85.582 7.7757C88.8833 7.7757 90.3777 9.99708 90.3777 12.8991C90.3777 15.8011 88.8833 18.019 85.582 18.019C82.2779 18.019 80.788 15.8001 80.788 12.8991ZM83.0659 12.8991C83.0659 14.5858 83.4674 16.4932 85.5811 16.4932C87.6957 16.4932 88.0971 14.5858 88.0971 12.8991C88.0971 11.2089 87.6957 9.30063 85.5811 9.30063C83.4673 9.30063 83.0659 11.2099 83.0659 12.8991ZM93.9303 17.8151H91.7871V7.98084H96.0288C97.7436 7.99417 99.4987 8.53838 99.4987 10.5425C99.4987 11.822 98.6557 12.668 97.4259 12.9256V12.9523C99.0713 13.129 99.0713 14.1228 99.2506 15.4858C99.3487 16.1128 99.43 17.2709 99.8305 17.8135H97.467C97.2886 16.9429 97.1905 16.0574 97.095 15.1709C97.0385 14.6273 96.8998 13.8781 96.1965 13.8517H93.931V17.8134L93.9303 17.8151ZM93.9303 12.2169H95.7247C96.6668 12.2003 97.2183 11.7402 97.2183 10.867C97.2183 9.99635 96.667 9.62783 95.7246 9.61478H93.9303V12.2169ZM101.141 17.8151V7.98084H103.284V16.1812H107.61V17.8151H101.141ZM108.767 7.98157H112.169C115.276 7.95505 117.212 9.47924 117.212 12.8992C117.212 16.3175 115.276 17.8424 112.169 17.8153H108.767V7.98157ZM110.909 16.1811H112.014C114.559 16.2077 114.933 14.4637 114.933 12.8991C114.933 11.332 114.559 9.58899 112.015 9.61625H110.909V16.1811ZM122.638 17.8151V7.98084H126.384C128.167 7.87182 129.991 8.60871 129.991 10.5285C129.991 11.6041 129.229 12.3543 128.235 12.6796V12.7063C129.494 12.9658 130.432 13.824 130.432 15.2661C130.432 17.2141 127.943 17.9239 126.411 17.8138L122.638 17.8151ZM126.453 16.1803C127.462 16.1803 128.152 16.0029 128.152 14.8727C128.152 13.7427 127.463 13.5651 126.453 13.5651H124.779V16.1813L126.453 16.1803ZM126.453 11.932C127.351 11.932 127.847 11.5636 127.847 10.7738C127.847 9.98243 127.35 9.61654 126.453 9.61654H124.779V11.9329L126.453 11.932ZM131.097 17.8151L134.706 7.98084H137.249L140.716 17.8151H138.562L137.843 15.7309H133.89L133.143 17.8151H131.097ZM137.303 14.0971L135.935 9.90154H135.909L134.444 14.0971H137.303ZM147.793 17.8151L143.854 9.64204L143.827 9.66871V17.8137H141.824V7.97937H145.001L148.804 15.7164L148.831 15.6865V7.97747H150.835V17.8125L147.793 17.8151ZM154.721 12.2309H154.748L158.065 7.98084H160.566L156.904 12.3805L160.885 17.8153H158.218L154.749 12.8025H154.722V17.8153H152.58V7.98069H154.722L154.721 12.2309Z" fill="#B6B3EB"/>
</svg>
