<svg width="176" height="52" viewBox="0 0 176 52" fill="none" xmlns="http://www.w3.org/2000/svg">
<rect x="0.5" y="0.5" width="174.5" height="51" rx="7.5" fill="black"/>
<rect x="0.5" y="0.5" width="174.5" height="51" rx="7.5" stroke="#A6A6A6"/>
<path d="M88.5781 28.2776C85.5205 28.2776 83.0284 30.602 83.0284 33.8065C83.0284 36.9902 85.5205 39.3354 88.5781 39.3354C91.6357 39.3354 94.1278 36.9902 94.1278 33.8065C94.1278 30.602 91.6357 28.2776 88.5781 28.2776ZM88.5781 37.1579C86.9024 37.1579 85.4568 35.776 85.4568 33.8065C85.4568 31.8162 86.9024 30.4551 88.5781 30.4551C90.2538 30.4551 91.6981 31.8162 91.6981 33.8065C91.6981 35.7747 90.2538 37.1579 88.5781 37.1579ZM76.4699 28.2776C73.4123 28.2776 70.9202 30.602 70.9202 33.8065C70.9202 36.9902 73.4123 39.3354 76.4699 39.3354C79.5275 39.3354 82.0196 36.9902 82.0196 33.8065C82.0209 30.602 79.5275 28.2776 76.4699 28.2776ZM76.4699 37.1579C74.7942 37.1579 73.3499 35.776 73.3499 33.8065C73.3499 31.8162 74.7955 30.4551 76.4699 30.4551C78.1456 30.4551 79.5899 31.8162 79.5899 33.8065C79.5912 35.7747 78.1456 37.1579 76.4699 37.1579ZM62.0685 32.3193H67.6819C67.5142 33.6388 67.0748 34.6021 66.404 35.2729C65.5876 36.0893 64.3097 36.9902 62.0685 36.9902C58.6131 36.9902 55.9117 34.2043 55.9117 30.7489C55.9117 27.2935 58.6131 24.5076 62.0685 24.5076C63.9327 24.5076 65.2938 25.2408 66.2987 26.1833L67.9536 24.5284C66.5509 23.1881 64.6867 22.1611 62.0685 22.1611C57.3352 22.1611 53.3559 26.0143 53.3559 30.7476C53.3559 35.4809 57.3352 39.3341 62.0685 39.3341C64.623 39.3341 66.5509 38.4969 68.0589 36.9252C69.6085 35.3756 70.0908 33.1968 70.0908 31.4379C70.0908 30.8932 70.0492 30.3901 69.9647 29.9715H62.0685V32.3193ZM120.969 31.7954C120.509 30.5591 119.105 28.2763 116.236 28.2763C113.387 28.2763 111.021 30.5175 111.021 33.8052C111.021 36.9044 113.366 39.3341 116.509 39.3341C119.042 39.3341 120.509 37.7845 121.116 36.8836L119.231 35.6265C118.603 36.5482 117.744 37.1553 116.509 37.1553C115.272 37.1553 114.393 36.5898 113.828 35.4796L121.221 32.422L120.969 31.7954ZM113.429 33.6388C113.366 31.5029 115.084 30.4135 116.319 30.4135C117.282 30.4135 118.098 30.8945 118.371 31.5861L113.429 33.6388ZM107.418 39H109.847V22.7487H107.418V39ZM103.438 29.5126H103.355C102.81 28.8639 101.764 28.2763 100.444 28.2763C97.6794 28.2763 95.1457 30.706 95.1457 33.826C95.1457 36.9252 97.6794 39.3341 100.444 39.3341C101.764 39.3341 102.81 38.7478 103.355 38.077H103.438V38.8726C103.438 40.9877 102.307 42.1187 100.485 42.1187C98.9976 42.1187 98.0759 41.0501 97.6989 40.1505L95.5838 41.0306C96.1909 42.497 97.8042 44.2975 100.485 44.2975C103.333 44.2975 105.742 42.6218 105.742 38.5385V28.6117H103.438V29.5126ZM100.654 37.1579C98.9781 37.1579 97.5754 35.7552 97.5754 33.8273C97.5754 31.8799 98.9781 30.4551 100.654 30.4551C102.309 30.4551 103.606 31.8786 103.606 33.8273C103.606 35.7539 102.309 37.1579 100.654 37.1579ZM132.349 22.7487H126.537V39H128.961V32.8432H132.348C135.036 32.8432 137.679 30.8971 137.679 27.7966C137.679 24.6961 135.037 22.7487 132.349 22.7487ZM132.411 30.5812H128.961V25.0107H132.411C134.225 25.0107 135.255 26.5122 135.255 27.7966C135.255 29.055 134.225 30.5812 132.411 30.5812ZM147.403 28.2477C145.647 28.2477 143.828 29.0212 143.075 30.7359L145.229 31.6355C145.69 30.7359 146.546 30.4434 147.446 30.4434C148.7 30.4434 149.976 31.1961 149.997 32.5338V32.7015C149.557 32.4506 148.616 32.0736 147.467 32.0736C145.146 32.0736 142.783 33.3489 142.783 35.7331C142.783 37.908 144.686 39.3081 146.818 39.3081C148.45 39.3081 149.348 38.5762 149.912 37.7195H149.995V38.974H152.337V32.7431C152.337 29.8571 150.184 28.2477 147.403 28.2477ZM147.109 37.154C146.315 37.154 145.206 36.7562 145.206 35.7747C145.206 34.5202 146.587 34.0392 147.777 34.0392C148.843 34.0392 149.345 34.2693 149.994 34.5826C149.807 36.088 148.511 37.154 147.109 37.154ZM160.867 28.6026L158.086 35.6486H158.003L155.119 28.6026H152.506L156.833 38.4501L154.366 43.9283H156.896L163.566 28.6026H160.867ZM139.018 39H141.444V22.7487H139.018V39Z" fill="white"/>
<path d="M61.5888 12.7283H57.8084V13.6656H60.6411C60.5644 14.4274 60.2589 15.0267 59.748 15.4622C59.2358 15.8977 58.5819 16.1161 57.8084 16.1161C56.9582 16.1161 56.2393 15.8223 55.6517 15.2334C55.0745 14.6341 54.7794 13.8944 54.7794 13C54.7794 12.1069 55.0745 11.3659 55.6517 10.7666C56.2393 10.1789 56.9582 9.88515 57.8084 9.88515C58.2439 9.88515 58.6586 9.96055 59.0395 10.1244C59.4204 10.2882 59.7259 10.517 59.9651 10.8108L60.684 10.0919C60.3577 9.72135 59.943 9.43795 59.4321 9.23125C58.9199 9.02455 58.3856 8.92575 57.8084 8.92575C56.6748 8.92575 55.7167 9.31835 54.9328 10.1023C54.1476 10.8875 53.7563 11.856 53.7563 13C53.7563 14.144 54.1476 15.1138 54.9328 15.8977C55.7167 16.6829 56.6748 17.0742 57.8084 17.0742C58.9953 17.0742 59.943 16.6933 60.6736 15.9198C61.3158 15.2776 61.6434 14.4053 61.6434 13.3159C61.6434 13.1313 61.6213 12.935 61.5888 12.7283Z" fill="white"/>
<path d="M63.0812 9.09995V16.9H67.6351V15.9419H64.0835V13.4693H67.2854V12.532H64.0835V10.0594H67.6351V9.09995H63.0812Z" fill="white"/>
<path d="M74.0389 10.0594V9.09995H68.679V10.0594H70.8578V16.9H71.8601V10.0594H74.0389Z" fill="white"/>
<path d="M78.9203 9.09995H77.918V16.9H78.9203V9.09995Z" fill="white"/>
<path d="M85.5438 10.0594V9.09995H80.1839V10.0594H82.3627V16.9H83.365V10.0594H85.5438Z" fill="white"/>
<path d="M95.6865 10.114C94.913 9.31835 93.9653 8.92575 92.8317 8.92575C91.6994 8.92575 90.7504 9.31835 89.9769 10.1023C89.2034 10.8758 88.8225 11.8456 88.8225 13C88.8225 14.1557 89.2034 15.1242 89.9769 15.8977C90.7504 16.6829 91.6994 17.0742 92.8317 17.0742C93.9536 17.0742 94.913 16.6829 95.6865 15.8977C96.46 15.1242 96.8409 14.1557 96.8409 13C96.8409 11.856 96.46 10.8875 95.6865 10.114ZM90.6971 10.7666C91.2743 10.1789 91.9815 9.88515 92.8317 9.88515C93.6819 9.88515 94.3891 10.1789 94.9559 10.7666C95.5331 11.3451 95.8165 12.0965 95.8165 13C95.8165 13.9048 95.5331 14.6562 94.9559 15.2334C94.3891 15.8223 93.6819 16.1161 92.8317 16.1161C91.9815 16.1161 91.2743 15.8223 90.6971 15.2334C90.1303 14.6458 89.8469 13.9048 89.8469 13C89.8469 12.0965 90.1303 11.3555 90.6971 10.7666Z" fill="white"/>
<path d="M99.2485 12.0419L99.2056 10.5378H99.2485L103.215 16.9H104.26V9.09995H103.258V13.6656L103.302 15.1684H103.258L99.4669 9.09995H98.2475V16.9H99.2485V12.0419Z" fill="white"/>
<path d="M26.9325 25.2516L13.0914 39.9416C13.0927 39.9442 13.0927 39.9468 13.094 39.9494C13.5178 41.5458 14.9751 42.7197 16.7041 42.7197C17.3957 42.7197 18.0444 42.5325 18.6008 42.2049L18.645 42.1789L34.2242 33.1894L26.9325 25.2516Z" fill="#EB4335"/>
<path d="M40.9364 22.7505L40.9234 22.7414L34.1972 18.8414L26.6195 25.5845L34.2232 33.1869L40.9143 29.3272C42.0869 28.6941 42.8825 27.4578 42.8825 26.0317C42.8825 24.616 42.0973 23.3849 40.9364 22.7505Z" fill="#FABC13"/>
<path d="M13.0919 12.0605C13.0087 12.3673 12.9645 12.6884 12.9645 13.0225V38.9796C12.9645 39.3137 13.0069 39.6361 13.0914 39.9416L27.4088 25.6273L13.0919 12.0605Z" fill="#547DBF"/>
<path d="M27.0339 26.0005L34.1982 18.8388L18.6359 9.81679C18.0704 9.47749 17.4113 9.28249 16.7041 9.28249C14.9751 9.28249 13.5165 10.459 13.0914 12.0567L13.0919 12.0605L27.0339 26.0005Z" fill="#30A851"/>
</svg>
