<svg width="77" height="32" viewBox="0 0 77 32" fill="none" xmlns="http://www.w3.org/2000/svg">
<path fill-rule="evenodd" clip-rule="evenodd" d="M77 16.3088C77 10.9147 74.3491 6.65839 69.2824 6.65839C64.1943 6.65839 61.1158 10.9147 61.1158 16.2667C61.1158 22.609 64.7501 25.8118 69.9665 25.8118C72.5105 25.8118 74.4346 25.2429 75.8883 24.4422V20.228C74.4346 20.9444 72.7671 21.3869 70.6506 21.3869C68.5769 21.3869 66.7383 20.6705 66.5032 18.1841H76.9572C76.9572 17.9102 77 16.8145 77 16.3088ZM66.439 14.3071C66.439 11.9261 67.9141 10.9358 69.261 10.9358C70.5651 10.9358 71.9547 11.9261 71.9547 14.3071H66.439Z" fill="#B6B3EB"/>
<path fill-rule="evenodd" clip-rule="evenodd" d="M52.8636 6.65839C50.7685 6.65839 49.4217 7.62765 48.6734 8.30191L48.3955 6.99552H43.6923V31.5641L49.0369 30.4474L49.0583 24.4843C49.8279 25.0322 50.9609 25.8118 52.8423 25.8118C56.669 25.8118 60.1537 22.7776 60.1537 16.0981C60.1323 9.98758 56.6049 6.65839 52.8636 6.65839ZM51.5809 21.1762C50.3196 21.1762 49.5713 20.7337 49.0583 20.1859L49.0369 12.3686C49.5927 11.7575 50.3624 11.3361 51.5809 11.3361C53.5264 11.3361 54.8732 13.4853 54.8732 16.2456C54.8732 19.0691 53.5477 21.1762 51.5809 21.1762Z" fill="#B6B3EB"/>
<path fill-rule="evenodd" clip-rule="evenodd" d="M41.7041 0L36.3381 1.11676V5.41521L41.7041 4.27738V0Z" fill="#B6B3EB"/>
<path fill-rule="evenodd" clip-rule="evenodd" d="M36.3381 7.0166H41.7041V25.4536H36.3381V7.0166Z" fill="#B6B3EB"/>
<path fill-rule="evenodd" clip-rule="evenodd" d="M30.5872 8.57581L30.2451 7.01657H25.6274V25.4536H30.972V12.9585C32.2333 11.3361 34.3712 11.6311 35.0339 11.8629V7.01657C34.3498 6.76372 31.8485 6.30016 30.5872 8.57581Z" fill="#B6B3EB"/>
<path fill-rule="evenodd" clip-rule="evenodd" d="M19.8981 2.44421L14.6817 3.5399L14.6603 20.4177C14.6603 23.5361 17.0334 25.8329 20.1974 25.8329C21.9504 25.8329 23.2331 25.5168 23.9386 25.1375V20.8601C23.2545 21.1341 19.8767 22.1033 19.8767 18.9848V11.5047H23.9386V7.01659H19.8767L19.8981 2.44421Z" fill="#B6B3EB"/>
<path fill-rule="evenodd" clip-rule="evenodd" d="M5.44611 12.3686C5.44611 11.5468 6.13023 11.2308 7.26329 11.2308C8.88805 11.2308 10.9404 11.7154 12.5652 12.5793V7.62765C10.7907 6.93231 9.0377 6.65839 7.26329 6.65839C2.92345 6.65839 0.0373535 8.8919 0.0373535 12.6214C0.0373535 18.437 8.16118 17.5099 8.16118 20.0173C8.16118 20.9866 7.30604 21.3026 6.10885 21.3026C4.33443 21.3026 2.06831 20.5862 0.272517 19.617V24.6318C2.26072 25.4747 4.2703 25.8329 6.10885 25.8329C10.5556 25.8329 13.6127 23.6626 13.6127 19.8909C13.5913 13.6118 5.44611 14.7285 5.44611 12.3686Z" fill="#B6B3EB"/>
</svg>
